<svg xmlns="http://www.w3.org/2000/svg" width="32" height="32" viewBox="0 0 8.467 8.467"><g transform="translate(0 -288.533)"><path style="line-height:normal;text-indent:0;text-align:start;text-decoration-line:none;text-decoration-style:solid;text-decoration-color:#000;text-transform:none;white-space:normal;isolation:auto;mix-blend-mode:normal;solid-color:#000;solid-opacity:1" fill-rule="evenodd" d="M3.5718748 290.91458l0 1.05834.79375 0 0-1.05834-.2645833 0 0 .79375-.2645833 0 0-.79375zM.26458309 292.10521l0 2.64583.26458334 0 0-2.64583z" color="#000" enable-background="accumulate" font-family="sans-serif" font-weight="400" overflow="visible"/><path style="line-height:normal;text-indent:0;text-align:start;text-decoration-line:none;text-decoration-style:solid;text-decoration-color:#000;text-transform:none;white-space:normal;isolation:auto;mix-blend-mode:normal;solid-color:#000;solid-opacity:1" fill-rule="evenodd" d="m 0.33072892,293.29584 0,0.26458 0.85989588,0 0,-0.26458 z" color="#000" enable-background="accumulate" font-family="sans-serif" font-weight="400" overflow="visible"/><path style="line-height:normal;text-indent:0;text-align:start;text-decoration-line:none;text-decoration-style:solid;text-decoration-color:#000;text-transform:none;white-space:normal;isolation:auto;mix-blend-mode:normal;solid-color:#000;solid-opacity:1" fill-rule="evenodd" d="M3.1176381 291.31146c-.092657 0-.1791229.049-.2268537.12867l-.3198813.53279-1.2479867 0c-.1445683 0-.2645833.11999-.2645833.26458l0 2.38125c0 .14457.120015.26459.2645833.26459l1.1374173 0c.090144 0 .1776413.031.2480469.0873l.3715544.29715c.1172369.0938.2627048.1447.4128823.1447l2.5925992 0c.1445948 0 .266118-.11938.2645834-.26561l0-.66043.4630208 0 .3571082.47644a.1323049.13230491 0 00.1059127.0527l.396875 0c.2176198 0 .396875-.17926.396875-.39688l0-1.85208c0-.21762-.1792552-.39688-.396875-.39688l-.396875 0a.1323049.13230491 0 00-.1059127.0532l-.3571082.47596-.4630208 0 0-.66146c0-.14459-.1199356-.26606-.2661179-.26458l-.7172855 0-.3198548-.53279c-.047757-.0799-.1340908-.12867-.2268802-.12867l-.321945 0 0 .26458.321945 0 .3586427.59738a.1323049.13230491 0 00.1131623.0641l.79375 0 0 .79375a.1323049.13230491 0 00.1322917.13229l.6614584 0a.1323049.13230491 0 00.1059391-.0527l.3570817-.47643.3307292 0c.074639 0 .1322917.0577.1322917.13229l0 1.85208c0 .0746-.057653.13229-.1322917.13229l-.3307292 0-.3570817-.47596a.1323049.13230491 0 00-.1059391-.0532l-.6614584 0a.1323049.13230491 0 00-.1322917.13229l0 .79375-2.5925992 0c-.090143 0-.1776677-.0305-.2480469-.0868L2.873216 294.76396c-.1172633-.0938-.2627048-.14521-.4128823-.14521l-1.1374173 0 0-2.38125 1.3229167 0a.1323049.13230491 0 00.1136915-.0641l.3581135-.59738.321945 0 0-.26458zM2.9104165 290.25313l0 .79375 2.1166667 0 0-.79375-.1322917 0zm.2645833.26458l1.5875 0 0 .26458-1.5875 0z" color="#000" enable-background="accumulate" font-family="sans-serif" font-weight="400" overflow="visible"/><path style="line-height:normal;text-indent:0;text-align:start;text-decoration-line:none;text-decoration-style:solid;text-decoration-color:#000;text-transform:none;white-space:normal;isolation:auto;mix-blend-mode:normal;solid-color:#000;solid-opacity:1" fill-rule="evenodd" d="M6.0854165 293.03125l0 1.32292.2645834 0 0-1.32292zM1.7197914 292.10521l0 2.64583.2645834 0 0-2.64583zM6.7468749 293.03125l0 1.32292.2645833 0 0-1.32292zM5.4239582 292.10521l0 .52917.2645833 0 0-.52917zM4.2333332 294.61875l0 .26459 1.984375 0 0-.26459zM3.8364582 294.61875l0 .26459.2645833 0 0-.26459zM5.4239582 292.76667l0 .26458.2645833 0 0-.26458z" color="#000" enable-background="accumulate" font-family="sans-serif" font-weight="400" overflow="visible"/></g></svg>