<svg xmlns="http://www.w3.org/2000/svg" viewBox="0 0 24 24"><g fill="none" stroke="#303C42" stroke-linecap="round" stroke-linejoin="round" stroke-miterlimit="10"><path d="M22.138 3.5c-.404 0-.788.18-1.046.49l-2.169 2.602c-1.79 2.15-5.545 3.908-8.343 3.908H3.5a1 1 0 0 1-1-1 1 1 0 1 0-2 0v5a1 1 0 0 0 2 0 1 1 0 0 1 1-1h1.923a3.256 3.256 0 0 0-.923 2.27v.46a3.27 3.27 0 0 0 3.27 3.27h5.46a3.27 3.27 0 0 0 3.27-3.27v-.261c1.507.882 2.842 1.942 3.79 3.079l.802.962a1.362 1.362 0 0 0 2.408-.872V4.862c0-.752-.61-1.362-1.362-1.362z"/><path d="M7.77 17.5c-.7 0-1.27-.57-1.27-1.27v-.46c0-.7.57-1.27 1.27-1.27h5.46c.7 0 1.27.57 1.27 1.27v.46c0 .7-.57 1.27-1.27 1.27H7.77z"/></g></svg>