<svg xmlns="http://www.w3.org/2000/svg" width="32" height="32" viewBox="0 0 8.467 8.467"><g transform="translate(0 -288.533)"><path d="m 3.1708657,290.64999 c -1.3031094,0 -2.37711592,0.93985 -2.37711592,2.11666 0,1.17682 1.07400652,2.11667 2.37711592,2.11667 0.1902762,0 0.3617439,-0.0793 0.4971273,-0.20566 0.1353835,-0.12639 0.2399503,-0.2975 0.3224609,-0.49559 0.1650212,-0.39614 0.2428793,-0.90554 0.2428793,-1.41542 0,-0.50985 -0.077858,-1.01875 -0.2428793,-1.41488 -0.082511,-0.1981 -0.1870774,-0.3692 -0.3224609,-0.49559 -0.1353834,-0.12639 -0.3068511,-0.20619 -0.4971273,-0.20619 z m 0,0.26458 c 0.1197026,0 0.2196759,0.0447 0.3167767,0.13539 0.097101,0.0907 0.1864201,0.2296 0.2588987,0.40359 0.1449576,0.34801 0.2222088,0.83079 0.2222088,1.3131 0,0.48234 -0.077251,0.96563 -0.2222088,1.31363 -0.072479,0.17399 -0.1617982,0.31293 -0.2588987,0.4036 -0.097101,0.0906 -0.1970741,0.13486 -0.3167767,0.13486 -1.1767203,0 -2.1125326,-0.83704 -2.1125326,-1.85209 0,-1.01504 0.9358123,-1.85208 2.1125326,-1.85208 z" style="line-height:normal;text-indent:0;text-align:start;text-decoration-line:none;text-decoration-style:solid;text-decoration-color:#000;text-transform:none;white-space:normal;isolation:auto;mix-blend-mode:normal;solid-color:#000;solid-opacity:1" color="#000" enable-background="accumulate" font-family="sans-serif" font-weight="400" overflow="visible"/><path style="line-height:normal;text-indent:0;text-align:start;text-decoration-line:none;text-decoration-style:solid;text-decoration-color:#000;text-transform:none;white-space:normal;isolation:auto;mix-blend-mode:normal;solid-color:#000;solid-opacity:1" fill-rule="evenodd" d="M4.752934 293.29551a.13218779.13229381 0 01-.014973-.26197l2.5077028-.52809a.13218779.13229381 0 11.054212.25887l-2.5077028.52809a.13218779.13229381 0 01-.039239.003zM4.752934 294.35375a.13218779.13229381 0 01-.014973-.26197l2.5077028-.52809a.13218779.13229381 0 11.054212.25887l-2.5077028.5281a.13218779.13229381 0 01-.039239.003zM4.752934 291.17902a.13218779.13229381 0 01-.014973-.26197l2.5077028-.52809a.13218779.13229381 0 11.054212.25887l-2.5077028.52809a.13218779.13229381 0 01-.039239.003zM4.752934 292.23726a.13218779.13229381 0 01-.014973-.26197l2.5077028-.52809a.13218779.13229381 0 11.054212.25888l-2.5077028.52809a.13218779.13229381 0 01-.039239.003z" color="#000" enable-background="accumulate" font-family="sans-serif" font-weight="400" overflow="visible"/></g></svg>