<svg xmlns="http://www.w3.org/2000/svg" width="32" height="32" viewBox="0 0 8.467 8.467"><g transform="translate(0 -288.533)"><path style="line-height:normal;text-indent:0;text-align:start;text-decoration-line:none;text-decoration-style:solid;text-decoration-color:#000;text-transform:none;white-space:normal;isolation:auto;mix-blend-mode:normal;solid-color:#000;solid-opacity:1" d="m 4.7123235,288.73176 c -0.061993,0.004 -0.1131651,0.0498 -0.1230078,0.1111 0,0 -0.084669,0.52534 -0.4025734,1.07336 -0.1111806,0.19166 -0.2527891,0.33939 -0.3978901,0.49298 -0.061729,-0.0658 -0.1597064,-0.16999 -0.1597064,-0.16999 -0.077498,-0.0726 -0.2046603,-0.0289 -0.2211707,0.076 0,0 -0.051859,0.32289 -0.2470211,0.6594 -0.09078,0.15648 -0.2230491,0.26744 -0.3493378,0.41393 -0.1154141,0.13366 0.085092,0.30678 0.2005061,0.17311 0.1068678,-0.12393 0.2599331,-0.25115 0.3777548,-0.45424 0.1552613,-0.26768 0.1643369,-0.39274 0.1953467,-0.52505 0.039609,0.0423 0.042599,0.0397 0.098189,0.1075 0.05096,0.0624 0.1454715,0.0652 0.199977,0.006 0.1673001,-0.18296 0.3718281,-0.37074 0.5317726,-0.6465 0.223843,-0.38589 0.3250751,-0.72848 0.379316,-0.91673 0.1961139,0.19931 0.6491975,0.69755 0.9348486,1.45366 0.037413,0.099 0.1701313,0.11616 0.2315161,0.03 0.1412381,-0.19719 0.1698403,-0.22288 0.2464919,-0.30901 0.032571,0.14235 0.073186,0.28261 0.250646,0.58858 0.1300723,0.22423 0.2995156,0.36552 0.4201421,0.50542 0.1206265,0.13986 0.1994742,0.26625 0.1994742,0.5054 0,0.22173 -0.089114,0.42083 -0.234109,0.56585 -0.072471,0.0725 -0.1585951,0.13111 -0.2542443,0.17159 -0.1625905,0.0686 -0.059744,0.31245 0.102846,0.2439 0.1275058,-0.0539 0.2422055,-0.13214 0.3384898,-0.22839 0.1925155,-0.1926 0.3116074,-0.4597 0.3116074,-0.75295 0,-0.3048 -0.1235105,-0.51559 -0.263558,-0.67803 -0.1400473,-0.1624 -0.289223,-0.288 -0.3922279,-0.46559 -0.2197682,-0.37886 -0.278031,-0.74156 -0.278031,-0.74156 -0.016404,-0.10491 -0.1436722,-0.14862 -0.2211706,-0.076 0,0 -0.1613997,0.16769 -0.2992246,0.33074 -0.4011711,-0.89939 -1.0785209,-1.50948 -1.0785209,-1.50948 -0.026459,-0.0241 -0.061412,-0.0367 -0.097131,-0.0346 z" color="#000" enable-background="accumulate" font-family="sans-serif" font-weight="400" overflow="visible"/><path style="line-height:normal;text-indent:0;text-align:start;text-decoration-line:none;text-decoration-style:solid;text-decoration-color:#000;text-transform:none;white-space:normal;isolation:auto;mix-blend-mode:normal;solid-color:#000;solid-opacity:1" d="M4.8875085 290.12085a.13230814.13230719 0 00-.1230078.11111c0 0-.055325.34308-.2625261.70075-.039397.0681-.1684379.21747-.2340826.28938a.13230814.13230719 0 10.1953202.17829c.068185-.0747.1968813-.21303.2677119-.33537.1645221-.28401.1748675-.41782.2072268-.55659.076308.0779.1437252.13168.2888792.34368a.13230814.13230719 0 00.00265.003c.2165403.30237.3034052.53921.3152323.88369a.13237684.13237589 0 10.2645899-.009c-.013229-.38807-.127691-.69724-.3643137-1.02784-.2285792-.33319-.4594337-.54572-.4594337-.54572a.13230814.13230719 0 00-.097131-.0346zM3.9686674 292.70058c-.8386703 0-1.5213914.68272-1.5213914 1.52138 0 .83867.6827211 1.52138 1.5213914 1.52138.8386703 0 1.5213914-.68271 1.5213914-1.52138 0-.83866-.6827211-1.52138-1.5213914-1.52138zm0 .26459c.695686 0 1.2568016.56111 1.2568016 1.25679 0 .69569-.5611156 1.2568-1.2568016 1.2568-.695686 0-1.2568016-.56111-1.2568016-1.2568 0-.69568.5611156-1.25679 1.2568016-1.25679z" color="#000" enable-background="accumulate" font-family="sans-serif" font-weight="400" overflow="visible"/><path style="line-height:normal;text-indent:0;text-align:start;text-decoration-line:none;text-decoration-style:solid;text-decoration-color:#000;text-transform:none;white-space:normal;isolation:auto;mix-blend-mode:normal;solid-color:#000;solid-opacity:1" fill-rule="evenodd" d="M3.9686674 294.85193c-.1878323 0-.3463745.1398-.4511521.34932l-.1322949.2646.236702.11832.1322949-.26459c.079165-.15836.1611882-.20307.2144501-.20307.053262 0 .1357875.0447.2149792.20307l.1322949.26459.2366756-.11832-.1322949-.2646c-.1047775-.20952-.2638225-.34932-.4516548-.34932zM5.3324426 294.05091c-.097845.0146-.1950291.0298-.292504.0445-.2316484.0349-.4137655.14279-.4718166.32142-.058024.17865.02593.37254.1927538.53693l.2108515.20775.1855305-.18862-.2108517-.20776c-.12613-.12425-.1430637-.21598-.1266062-.26665.016404-.0506.084351-.11522.2594303-.14158.097739-.0148.1951614-.0294.2924776-.0439zM4.2275685 292.87214c-.01614.0973-.031857.19463-.048049.292-.038392.23107.00767.43736.15968.54778.1519539.11041.3626203.0909.5705085-.0169l.262526-.13643-.1219495-.23461-.262526.13642c-.1571398.0816-.2499315.069-.2930066.0377-.043102-.0313-.083293-.11578-.054267-.29043.01614-.0973.032439-.19459.048578-.29198zM3.7097663 292.87214l-.2609649.0434.048578.29198c.028999.1747-.011642.25913-.054796.29043-.043075.0313-.1353376.0439-.2924775-.0377-.087579-.0455-.1754759-.091-.2630552-.13642l-.1219494.23461c.087553.0454.1754495.091.2630287.13643.2079147.10795.4180254.12745.5700058.0169.1519804-.11042.1986011-.31666.1602091-.54778zM2.6048921 294.05091l-.039265.26202.2930068.0439c.175079.0265.2424436.0909.2589011.14158.016404.0507.0000529.1424-.1261035.26665-.070328.0693-.1410529.13855-.2113544.20776l.1860332.18862c.070355-.0693.14055-.13853.2108515-.20775.1669033-.16439.2503021-.35828.192251-.53693-.058051-.17863-.2396654-.28655-.4713138-.32142z" color="#000" enable-background="accumulate" font-family="sans-serif" font-weight="400" overflow="visible"/><path style="line-height:normal;text-indent:0;text-align:start;text-decoration-line:none;text-decoration-style:solid;text-decoration-color:#000;text-transform:none;white-space:normal;isolation:auto;mix-blend-mode:normal;solid-color:#000;solid-opacity:1" d="m 3.9686674,293.72587 c -0.2724217,0 -0.4961059,0.22367 -0.4961059,0.49609 0,0.27242 0.2236842,0.4961 0.4961059,0.4961 0.2724217,0 0.4961059,-0.22368 0.4961059,-0.4961 0,-0.27242 -0.2236842,-0.49609 -0.4961059,-0.49609 z m 0,0.26458 c 0.1294374,0 0.2315161,0.10207 0.2315161,0.23151 0,0.12944 -0.1020787,0.23152 -0.2315161,0.23152 -0.1294374,0 -0.2315161,-0.10208 -0.2315161,-0.23152 0,-0.12944 0.1020787,-0.23151 0.2315161,-0.23151 z" color="#000" enable-background="accumulate" font-family="sans-serif" font-weight="400" overflow="visible"/><path style="line-height:normal;text-indent:0;text-align:start;text-decoration-line:none;text-decoration-style:solid;text-decoration-color:#000;text-transform:none;white-space:normal;isolation:auto;mix-blend-mode:normal;solid-color:#000;solid-opacity:1" d="m 3.7381833,291.58643 c -1.4540534,0.12721 -2.5323098,1.41194 -2.4050686,2.86602 0.1272149,1.45404 1.4124863,2.53229 2.8665396,2.40505 1.4540533,-0.12721 2.531754,-1.41197 2.4045657,-2.86602 -0.1271883,-1.45406 -1.411957,-2.53229 -2.8660367,-2.40505 z m 0.023284,0.26355 c 1.3116246,-0.11477 2.4644954,0.85262 2.5792215,2.16423 0.1147526,1.31158 -0.8526672,2.46498 -2.1642388,2.57974 -1.3116246,0.11477 -2.4649981,-0.85317 -2.5797507,-2.16476 -0.114779,-1.31161 0.8531435,-2.46445 2.164768,-2.57921 z" color="#000" enable-background="accumulate" font-family="sans-serif" font-weight="400" overflow="visible"/><path style="line-height:normal;text-indent:0;text-align:start;text-decoration-line:none;text-decoration-style:solid;text-decoration-color:#000;text-transform:none;white-space:normal;isolation:auto;mix-blend-mode:normal;solid-color:#000;solid-opacity:1" d="M5.7267344 295.02039a.13230814.13230719 0 00-.1136943.0718c-.1130592.21333-.2661773.40144-.4485591.5545-.1823817.15301-.3939742.27085-.623744.3452a.13230814.13230719 0 10.08115.25165c.2626582-.085.5044668-.21965.7126197-.39429.2081528-.17468.382835-.38912.51214-.63305a.13230814.13230719 0 00-.1199123-.19581zM3.3506121 292.1931a.13230814.13230719 0 00-.035138.007c-.2626847.085-.5039906.22018-.7121434.39482-.2081264.17468-.3828351.38912-.5121136.63305a.13230814.13230719 0 10.2335799.12351c.1130857-.21336.2661773-.40093.4485591-.554.1823817-.153.3939742-.27135.623744-.34571a.13230814.13230719 0 00-.046488-.25839z" color="#000" enable-background="accumulate" font-family="sans-serif" font-weight="400" overflow="visible"/></g></svg>