<svg xmlns="http://www.w3.org/2000/svg" viewBox="0 0 24 24"><g fill="none" stroke="#303C42" stroke-linecap="round" stroke-linejoin="round" stroke-miterlimit="10"><circle cx="12" cy="12" r="11.5"/><circle cx="12" cy="12" r="8.5"/><path d="M18.355 10.68a6.483 6.483 0 00-1.89-3.357C15.446 8.451 14.77 9.81 15.5 10.54c.552.552 1.932.617 2.855.14zM18.355 13.32a6.483 6.483 0 01-1.89 3.356c-1.018-1.128-1.694-2.487-.965-3.216.552-.552 1.932-.617 2.855-.14zM12 5.54c-.69 0-1.355.109-1.98.308.105 1.51.946 2.691 1.98 2.691s1.875-1.181 1.98-2.69a6.49 6.49 0 00-1.98-.31zM12 18.5a6.49 6.49 0 01-1.98-.31c.105-1.509.946-2.69 1.98-2.69s1.875 1.181 1.98 2.69a6.49 6.49 0 01-1.98.31zM5.645 10.68c.923.476 2.303.411 2.855-.14.73-.73.053-2.089-.964-3.217a6.483 6.483 0 00-1.891 3.356zM5.645 13.399a6.483 6.483 0 001.89 3.356c1.018-1.128 1.694-2.487.965-3.216-.552-.552-1.932-.617-2.855-.14z"/><circle cx="12" cy="12" r="1.5"/></g></svg>