<svg width="24" height="23" viewBox="0 0 24 23" fill="none" xmlns="http://www.w3.org/2000/svg">
<path fill-rule="evenodd" clip-rule="evenodd" d="M12 1.9165C6.48 1.9165 2 6.20984 2 11.4998C2 16.7898 6.48 21.0832 12 21.0832C17.52 21.0832 22 16.7898 22 11.4998C22 6.20984 17.52 1.9165 12 1.9165ZM12 19.1665C7.59 19.1665 4 15.7261 4 11.4998C4 7.27359 7.59 3.83317 12 3.83317C16.41 3.83317 20 7.27359 20 11.4998C20 15.7261 16.41 19.1665 12 19.1665ZM9.97 9.07525C9.97 9.77484 10.54 10.2444 12.31 10.6757C14.07 11.1165 15.96 11.8448 15.97 13.9532C15.96 15.4961 14.76 16.3298 13.24 16.6078V18.2082H10.9V16.579C9.4 16.2819 8.14 15.3619 8.04 13.7328H9.76C9.85 14.6144 10.48 15.3044 12.08 15.3044C13.79 15.3044 14.18 14.4803 14.18 13.9723C14.18 13.2823 13.79 12.6211 11.84 12.1803C9.67 11.6819 8.18 10.8194 8.18 9.104C8.18 7.65692 9.39 6.71775 10.9 6.41109V4.7915H13.23V6.43025C14.85 6.81359 15.67 7.99234 15.72 9.2765H14.01C13.97 8.33734 13.45 7.70484 12.07 7.70484C10.76 7.70484 9.97 8.27025 9.97 9.07525Z" fill="#00FF75"/>
</svg>
