<svg width="26" height="26" viewBox="0 0 26 26" fill="none" xmlns="http://www.w3.org/2000/svg">
<path fill-rule="evenodd" clip-rule="evenodd" d="M9.53864 6.50016C9.53864 4.64766 11.0445 3.14183 12.897 3.14183C14.7495 3.14183 16.2553 4.64766 16.2553 6.50016V8.66683H11.207L13.3736 10.8335H19.397V16.8568L21.5636 19.0235V10.8335C21.5636 9.64183 20.5886 8.66683 19.397 8.66683H18.3136V6.50016C18.3136 3.51016 15.887 1.0835 12.897 1.0835C10.3836 1.0835 8.28197 2.806 7.67531 5.13516L9.53864 6.9985V6.50016ZM4.67447 5.211L3.14697 6.7385L5.35697 8.9485C4.68531 9.31683 4.23031 10.021 4.23031 10.8335V21.6668C4.23031 22.8585 5.20531 23.8335 6.39697 23.8335H20.242L21.3253 24.9168L22.8528 23.3893L4.67447 5.211ZM6.39697 10.8335V21.6668H18.0753L7.24197 10.8335H6.39697Z" fill="white"/>
</svg>
