<svg width="92" height="74" viewBox="0 0 92 74" fill="none" xmlns="http://www.w3.org/2000/svg">
<path fill-rule="evenodd" clip-rule="evenodd" d="M7.66666 37.0001C7.66666 53.9893 24.8783 67.8334 46 67.8334C51.29 67.8334 55.5833 64.3801 55.5833 60.1251C55.5833 58.2443 54.7017 56.4251 53.13 54.9759C52.8233 54.6676 52.6317 54.3284 52.6317 53.9584C52.6317 53.0951 53.475 52.4168 54.5483 52.4168H61.3333C74.0217 52.4168 84.3333 44.1226 84.3333 33.9167C84.3333 18.6234 67.1217 6.16675 46 6.16675C24.8783 6.16675 7.66666 20.0109 7.66666 37.0001ZM15.3333 37.0001C15.3333 23.4026 29.095 12.3334 46 12.3334C62.905 12.3334 76.6667 22.0151 76.6667 33.9167C76.6667 40.7309 69.805 46.2501 61.3333 46.2501H54.5483C49.2583 46.2501 44.965 49.7034 44.965 53.9584C44.965 55.8084 45.8083 57.6276 47.38 59.0459C47.61 59.2617 47.9167 59.6317 47.9167 60.1251C47.9167 60.9884 47.0733 61.6667 46 61.6667C29.095 61.6667 15.3333 50.5976 15.3333 37.0001ZM24.9167 30.8334C21.741 30.8334 19.1667 32.9041 19.1667 35.4584C19.1667 38.0127 21.741 40.0834 24.9167 40.0834C28.0923 40.0834 30.6667 38.0127 30.6667 35.4584C30.6667 32.9041 28.0923 30.8334 24.9167 30.8334ZM30.6667 23.1251C30.6667 20.5708 33.241 18.5001 36.4167 18.5001C39.5923 18.5001 42.1667 20.5708 42.1667 23.1251C42.1667 25.6794 39.5923 27.7501 36.4167 27.7501C33.241 27.7501 30.6667 25.6794 30.6667 23.1251ZM55.5833 18.5001C52.4077 18.5001 49.8333 20.5708 49.8333 23.1251C49.8333 25.6794 52.4077 27.7501 55.5833 27.7501C58.759 27.7501 61.3333 25.6794 61.3333 23.1251C61.3333 20.5708 58.759 18.5001 55.5833 18.5001ZM61.3333 35.4584C61.3333 32.9041 63.9077 30.8334 67.0833 30.8334C70.259 30.8334 72.8333 32.9041 72.8333 35.4584C72.8333 38.0127 70.259 40.0834 67.0833 40.0834C63.9077 40.0834 61.3333 38.0127 61.3333 35.4584Z" fill="white" fill-opacity="0.54"/>
</svg>
