<svg width="26" height="25" viewBox="0 0 26 25" fill="none" xmlns="http://www.w3.org/2000/svg">
<path fill-rule="evenodd" clip-rule="evenodd" d="M5.08075 6.79671L2.17742 4.00505L3.70492 2.52588L22.9124 21.005L21.3849 22.4738L17.6799 18.9113C16.2283 19.4634 14.6466 19.7655 12.9999 19.7655C7.58325 19.7655 2.95742 16.5259 1.08325 11.953C1.91742 9.90088 3.31492 8.13005 5.08075 6.79671ZM12.9999 6.2238C17.1058 6.2238 20.7674 8.44254 22.5549 11.953C21.9158 13.2238 21.0166 14.3175 19.9441 15.203L21.4716 16.6717C22.9774 15.3905 24.1691 13.7863 24.9166 11.953C23.0424 7.38004 18.4166 4.14046 12.9999 4.14046C11.6241 4.14046 10.3024 4.3488 9.05659 4.73421L10.8441 6.45296C11.5483 6.31755 12.2633 6.2238 12.9999 6.2238ZM11.8408 7.4113L14.0833 9.56754C14.7008 9.82796 15.1991 10.3071 15.4699 10.9009L17.7124 13.0571C17.7991 12.703 17.8641 12.328 17.8641 11.9425C17.8749 9.35921 15.6866 7.26546 12.9999 7.26546C12.5991 7.26546 12.2199 7.31755 11.8408 7.4113ZM10.3024 11.8175L13.1299 14.5363C13.0866 14.5467 13.0433 14.5571 12.9999 14.5571C11.5049 14.5571 10.2916 13.3905 10.2916 11.953C10.2916 11.9269 10.2943 11.9061 10.297 11.8853C10.2997 11.8644 10.3024 11.8436 10.3024 11.8175ZM8.51492 10.0988L6.61909 8.27588C5.30825 9.23421 4.20325 10.4634 3.44492 11.953C5.23242 15.4634 8.89409 17.6821 12.9999 17.6821C14.0291 17.6821 15.0258 17.5363 15.9791 17.2863L14.9174 16.2655C14.3324 16.505 13.6824 16.6405 12.9999 16.6405C10.3133 16.6405 8.12492 14.5363 8.12492 11.953C8.12492 11.2967 8.26575 10.6717 8.51492 10.0988Z" fill="white"/>
</svg>
